<svg width="16" height="16" viewBox="0 0 16 16" fill="none" xmlns="http://www.w3.org/2000/svg">
<g clip-path="url(#clip0_862861_122)">
<path d="M16 3.03894C15.405 3.29994 14.771 3.47294 14.11 3.55694C14.79 3.15094 15.309 2.51294 15.553 1.74394C14.919 2.12194 14.219 2.38894 13.473 2.53794C12.871 1.89694 12.013 1.49994 11.077 1.49994C9.26097 1.49994 7.79897 2.97394 7.79897 4.78094C7.79897 5.04094 7.82097 5.29094 7.87497 5.52894C5.14797 5.39594 2.73497 4.08894 1.11397 2.09794C0.830969 2.58894 0.66497 3.15094 0.66497 3.75594C0.66497 4.89194 1.24997 5.89894 2.12197 6.48194C1.59497 6.47194 1.07797 6.31894 0.639969 6.07794C0.639969 6.08794 0.639969 6.10094 0.639969 6.11394C0.639969 7.70794 1.77697 9.03194 3.26797 9.33694C3.00097 9.40994 2.70997 9.44494 2.40797 9.44494C2.19797 9.44494 1.98597 9.43294 1.78697 9.38894C2.21197 10.6879 3.41797 11.6429 4.85197 11.6739C3.73597 12.5469 2.31897 13.0729 0.78497 13.0729C0.51597 13.0729 0.257969 13.0609 -3.05176e-05 13.0279C1.45297 13.9649 3.17497 14.4999 5.03197 14.4999C11.068 14.4999 14.368 9.49994 14.368 5.16594C14.368 5.02094 14.363 4.88094 14.356 4.74194C15.007 4.27994 15.554 3.70294 16 3.03894Z" fill="#F4F4FD"/>
</g>
<defs>
<clipPath id="clip0_862861_122">
<rect width="16" height="16" fill="white"/>
</clipPath>
</defs>
</svg>
